@startuml ginasio
abstract class Pessoa {
  # nome: String
}

Pessoa <|-- Clients

class Clients {
  - id: Int
  - nome: String
  - locaçao: List<Aluguel>
}

Clients "1" -r--* "0..*" Aluguel: composição >

class Aluguel {
  - cliente: Client
  - tempo: Int
  - quadra: Quadra
}

Aluguel "1" o--- "1..*" Quadra: < agregação

class Quadra {
  - numero: Int
  - aluguel: Aluguel
  - ginasio: Ginasio
}

Quadra *-d- Ginasio: < composição

class Ginasio {
  - nome: String
  - quadra: List<Quadra>
}
@enduml